<svg xmlns="http://www.w3.org/2000/svg" width="32" height="32" viewBox="0 0 32 32" fill="none">
  <path
    d="M27.1135 6.30516C26.9445 6.13716 26.7455 6.05266 26.5155 6.05266C26.401 6.05266 26.1595 6.14666 25.7925 6.33216C25.425 6.51816 25.035 6.72516 24.6245 6.95616C24.213 7.18566 23.726 7.39366 23.164 7.57966C22.6025 7.76516 22.0825 7.85916 21.604 7.85916C21.162 7.85916 20.772 7.77516 20.436 7.60666C19.3215 7.08466 18.352 6.69516 17.529 6.43816C16.706 6.18166 15.821 6.05266 14.8735 6.05266C13.2375 6.05266 11.374 6.58466 9.285 7.64666C8.854 7.86166 8.545 8.02816 8.345 8.15016L8.1465 6.69466C8.595 6.30516 8.8845 5.73766 8.8845 5.09716C8.8845 3.92366 7.9335 2.97266 6.76 2.97266C5.5865 2.97266 4.6355 3.92366 4.6355 5.09716C4.6355 5.86266 5.0445 6.52816 5.6515 6.90216L8.5215 27.9472C8.607 28.5737 9.143 29.0282 9.7585 29.0282C9.8145 29.0282 9.8715 29.0247 9.929 29.0172C10.613 28.9232 11.092 28.2937 10.9985 27.6097L9.845 19.1512C11.938 18.1127 13.7485 17.5892 15.2715 17.5892C15.918 17.5892 16.5485 17.6857 17.163 17.8807C17.778 18.0762 18.2895 18.2882 18.6965 18.5177C19.1035 18.7477 19.584 18.9607 20.1365 19.1547C20.69 19.3497 21.2365 19.4472 21.776 19.4472C23.139 19.4472 24.7715 18.9337 26.674 17.9072C26.913 17.7832 27.088 17.6612 27.1985 17.5417C27.309 17.4222 27.3645 17.2522 27.3645 17.0312V6.90266C27.3645 6.67316 27.281 6.47366 27.1135 6.30516Z"
    fill="#F0145A" />
</svg>