<svg xmlns="http://www.w3.org/2000/svg" width="32" height="32" viewBox="0 0 32 32" fill="none">
  <path
    d="M16.0971 3.55273C9.25258 3.55273 3.68408 9.12123 3.68408 15.9657C3.68408 22.8107 9.25258 28.3797 16.0971 28.3797C22.9416 28.3797 28.5101 22.8107 28.5101 15.9657C28.5106 9.12123 22.9421 3.55273 16.0971 3.55273ZM22.9556 15.0582V15.0587L19.3621 17.6587L20.7461 21.8887C20.7681 21.9547 20.7796 22.0252 20.7796 22.0972C20.7796 22.4667 20.4806 22.7667 20.1111 22.7667C19.9641 22.7667 19.8291 22.7197 19.7191 22.6402L16.0976 20.0207L12.4761 22.6402C12.3661 22.7197 12.2311 22.7667 12.0846 22.7667C11.7146 22.7667 11.4151 22.4672 11.4151 22.0972C11.4151 22.0247 11.4271 21.9547 11.4491 21.8887L12.8336 17.6587L9.24008 15.0587V15.0582C9.07208 14.9372 8.96308 14.7397 8.96308 14.5167C8.96308 14.1472 9.26208 13.8482 9.63208 13.8482H14.0806L15.4581 9.63773C15.5421 9.36423 15.7966 9.16523 16.0981 9.16523C16.3991 9.16523 16.6541 9.36423 16.7376 9.63773L18.1151 13.8482H22.5636C22.9331 13.8482 23.2326 14.1472 23.2326 14.5167C23.2321 14.7397 23.1231 14.9372 22.9556 15.0582Z"
    fill="#F0145A" />
</svg>